<svg xmlns="http://www.w3.org/2000/svg" version="1.1" xmlns:xlink="http://www.w3.org/1999/xlink" xmlns:svgjs="http://svgjs.com/svgjs" width="1440" height="560" preserveAspectRatio="none" viewBox="0 0 1440 560"><g mask="url(&quot;#SvgjsMask1003&quot;)" fill="none"><rect width="1440" height="560" x="0" y="0" fill="url(#SvgjsLinearGradient1004)"></rect><path d="M672.42 635.63C812.95 620.73 871.34 333.53 1138.43 315.69 1405.53 297.85 1477.03 113.09 1604.45 108.49" stroke="rgba(51,121,194,0.58)" stroke-width="2"></path><path d="M720.45 571.22C801.01 557.49 756.31 372.63 969.18 359.1 1182.06 345.57 1332.51 161.28 1466.65 157.5" stroke="rgba(51,121,194,0.58)" stroke-width="2"></path><path d="M729.79 597.62C864.72 584.39 921.15 316.23 1181.64 297.74 1442.13 279.25 1507.55 79.78 1633.49 73.74" stroke="rgba(51,121,194,0.58)" stroke-width="2"></path><path d="M685.32 598.33C814.34 516.36 741.16 66.42 975.31 60.05 1209.45 53.68 1402.69 248.04 1555.28 250.45" stroke="rgba(51,121,194,0.58)" stroke-width="2"></path><path d="M393.89 643.72C540.27 607.12 584.79 217.38 813.24 209.64 1041.68 201.9 1022.91 279.64 1232.58 279.64 1442.26 279.64 1545.64 209.88 1651.93 209.64" stroke="rgba(51,121,194,0.58)" stroke-width="2"></path></g><defs><mask id="SvgjsMask1003"><rect width="1440" height="560" fill="#ffffff"></rect></mask><linearGradient x1="15.28%" y1="-39.29%" x2="84.72%" y2="139.29%" gradientUnits="userSpaceOnUse" id="SvgjsLinearGradient1004"><stop stop-color="#0e2a47" offset="0"></stop><stop stop-color="#00459e" offset="1"></stop></linearGradient></defs></svg>