<svg xmlns="http://www.w3.org/2000/svg" version="1.1" xmlns:xlink="http://www.w3.org/1999/xlink" xmlns:svgjs="http://svgjs.com/svgjs" width="1440" height="560" preserveAspectRatio="none" viewBox="0 0 1440 560"><g mask="url(&quot;#SvgjsMask1000&quot;)" fill="none"><rect width="1440" height="560" x="0" y="0" fill="#0e2a47"></rect><path d="M570.23 88.18L584.98 88.18L584.98 132.47L570.23 132.47z" stroke="#037b0b"></path><path d="M947.69 265.76L979.56 265.76L979.56 284.4L947.69 284.4z" fill="#d3b714"></path><path d="M815.1 415.24L851.92 415.24L851.92 457.8L815.1 457.8z" fill="#e73635"></path><path d="M1365.71 527.34a27.84 27.84 0 1 0-32.72 45.05z" fill="#e73635"></path><path d="M896.03 55.68L918.52 55.68L918.52 73.97L896.03 73.97z" fill="#e73635"></path><path d="M214.24 484.92L217.26 484.92L217.26 487.94L214.24 487.94z" fill="#037b0b"></path><path d="M1156.73 10.3L1189.17 10.3L1189.17 42.74L1156.73 42.74z" stroke="#d3b714"></path><path d="M325.5 342.94a42.17 42.17 0 1 0-64.08-54.85z" stroke="#d3b714"></path><path d="M863.02 176.79a19.66 19.66 0 1 0-16.53-35.68z" fill="#d3b714"></path><path d="M617.1 414.06L649.05 414.06L649.05 446.01L617.1 446.01z" stroke="#e73635"></path><path d="M1173.69 221.98L1224.47 221.98L1224.47 272.76L1173.69 272.76z" stroke="#037b0b"></path><path d="M200.88 145.2L218.79 145.2L218.79 163.11L200.88 163.11z" fill="#037b0b"></path><path d="M820.91 81.59L822.96 81.59L822.96 83.64L820.91 83.64z" stroke="#037b0b"></path><path d="M83.19 472.51L85.25 472.51L85.25 479.59L83.19 479.59z" fill="#e73635"></path><path d="M185.64 435.8L199.78 435.8L199.78 449.94L185.64 449.94z" fill="#d3b714"></path><path d="M780.31 476.66 a33.04 33.04 0 1 0 66.08 0 a33.04 33.04 0 1 0 -66.08 0z" stroke="#e73635"></path><path d="M1071.11 522.76a15.23 15.23 0 1 0-27.73-12.6z" stroke="#e73635"></path><path d="M1186.2 236.73L1237.16 236.73L1237.16 271.52L1186.2 271.52z" fill="#e73635"></path><path d="M1210.8 18.23L1238.48 18.23L1238.48 30.39L1210.8 30.39z" stroke="#e73635"></path><path d="M1015.61 1.38L1044.72 1.38L1044.72 32.14L1015.61 32.14z" fill="#e73635"></path><path d="M181.76 135.74L227.66 135.74L227.66 181.64L181.76 181.64z" fill="#d3b714"></path><path d="M372.86 245.82L373.49 245.82L373.49 246.45L372.86 246.45z" stroke="#e73635"></path><path d="M1220.52 128.09a7.47 7.47 0 1 0 14.36 4.1z" fill="#e73635"></path><path d="M643.25 432.79 a25.45 25.45 0 1 0 50.9 0 a25.45 25.45 0 1 0 -50.9 0z" fill="#d3b714"></path><path d="M570.88 141.88 a41.64 41.64 0 1 0 83.28 0 a41.64 41.64 0 1 0 -83.28 0z" fill="#e73635"></path><path d="M30.82 144.82a3.58 3.58 0 1 0-6.04 3.84z" fill="#037b0b"></path><path d="M584.86 222.8 a7.59 7.59 0 1 0 15.18 0 a7.59 7.59 0 1 0 -15.18 0z" fill="#d3b714"></path><path d="M113.88 325.77L122.66 325.77L122.66 363.96L113.88 363.96z" fill="#e73635"></path><path d="M934.77 175.97a53.81 53.81 0 1 0 98.06-44.34z" stroke="#d3b714"></path><path d="M941.17 48.17L963.14 48.17L963.14 70.14L941.17 70.14z" fill="#037b0b"></path><path d="M804.45 239.84L855.37 239.84L855.37 290.76L804.45 290.76z" fill="#e73635"></path><path d="M377.06-2.93a38.9 38.9 0 1 0-69.37 35.22z" stroke="#037b0b"></path><path d="M1172.81 493.93L1180.35 493.93L1180.35 501.47L1172.81 501.47z" fill="#037b0b"></path></g><defs><mask id="SvgjsMask1000"><rect width="1440" height="560" fill="#ffffff"></rect></mask></defs></svg>